<?xml version="1.0" encoding="UTF-8"?>
<svg width="210mm" height="297mm" version="1.1" viewBox="0 0 210 297" xmlns="http://www.w3.org/2000/svg">
 <rect x="-103.33" y="123.26" width="266.67" height="150" fill="#364e79"/>
 <path d="m163.34 256.7c-0.80923-0.36307-1.5206-0.68114-2.3792-1.1172s-1.8666-0.98776-2.7352-1.5147-1.7374-1.0132-2.6035-1.462-1.7292-0.8601-2.5874-1.2369-1.7113-0.71925-2.5564-1.03-1.2691-0.46451-2.5094-0.84069-3.2654-0.88912-4.8147-1.1868-3.0364-0.50573-4.4395-0.6476-2.7225-0.21783-3.9377-0.25203-1.8336-1.3086-3.3119-1.2705-3.4408 1.4419-4.2426 1.4419-4.2448 0.26096-6.9572 0.43571-3.886 0.24027-6.1505 0.35045-4.7156 0.2069-7.2714 0.2677-5.2161 0.0863-7.8982 0.0546-5.386-0.12059-8.0295-0.28777-5.8363-0.49922-7.6662-0.75856-2.4043-0.37061-3.5424-0.59622-1.7124-0.33737-3.266-0.76295-4.2678-1.2364-6.5428-1.9761-3.5774-0.2267-7.1542-1.5034c-0.67249-0.24003-1.292-1.4136-2.1157-1.7152-0.40223-0.14728-1.2571 0.73815-1.7473 0.3856-1.0168-0.73135-1.7129-2.7322-2.2961-1.8837-1.1405 1.6592-2.0868 2.8888-2.8735 3.7666-1.4025 1.5651-1.7779-0.44495-2.3611-0.67612-0.72907-0.28903-1.4901 0.81892-1.6258-0.72939-0.2008-2.2919-1.3511-2.7056-2.3277-3.0806-0.37608-0.14442-0.02685-2.2187-0.79433-1.8568-0.69483 0.32767-1.2811 1.4889-1.6317 1.3764-0.93417-0.29971-0.40785-2.4364-1.3176-2.3602-1.0264 0.0859-1.988 1.1778-2.956 0.80995-0.64968-0.24689-1.333-1.5056-1.9374-2.1389-0.29788-0.31217-1.8165 0.20585-2.0968-0.12053-0.80386-0.93591-0.29822-2.6725-0.88892-2.8886-0.75183-0.27505-1.3591-0.49556-1.8743-0.68046-0.46902-0.16832-0.76719-0.87408-1.123-0.99761-0.72202-0.25065-1.3868 0.12851-2.1357-0.11557-0.81304-0.26501-1.7388 0.0514-2.4592-0.1524-0.62925-0.178-1.0794-0.88726-1.4532-0.9723-0.80181-0.18239-0.99217 0.81345-1.4731 0.77006-0.4809-0.0434-0.98492-1.0649-1.4218-1.0358-0.24255 0.0161-0.19556 0.77549-0.42684 0.81273-0.18534 0.0298-0.65083-0.66608-0.82993-0.6234-0.40262 0.0959-0.19988 1.2393-0.57782 1.3964s-1.3366-0.6722-1.6996-0.45973c-0.15191 0.0889-0.86243 0.81377-0.96239 1.8203-0.03975 0.40026 0.53412 0.96438 0.48948 1.3688-0.02457 0.2226 0.49289 0.46338 0.46509 0.66839-0.09813 0.7236-0.76359 1.2724-0.93703 1.3996-0.24846 0.18218-0.2729-0.83253-0.98479-1.2874-0.31026-0.19827-0.59145-0.38411-0.75807-0.68172-0.24916-0.44504-0.32973-0.96479-0.57152-0.74316-0.29293 0.26851-0.2549 1.1679-0.83141 1.1868-0.45168 0.0148-1.0401-0.1675-1.4181-0.12818-0.37762 0.0393-0.54531 0.29965-0.15703 1.1984 1.2731 2.9467-1.8068 1.6644-2.8634 2.5459-0.21856 0.18236 0.41616 1.0049 0.22681 1.3002-0.21392 0.33355-1.2488 0.15098-1.4443 0.54253-0.08466 0.16961 0.63329 1.3426 0.54942 1.5108-0.37963 0.76137-1.5613 0.46814-2.0166 0.78066-0.99365 0.68205-2.2315-0.52673-2.9755-0.0736-0.3648 0.22218 0.27022 1.2182-0.10782 1.7174-0.39296 0.51898-1.7999 0.5416-2.2255 0.76884-0.83522 0.44585-1.5534-0.16895-2.1961 0.42983-0.30217 0.28151-0.53913 1.3011-0.88089 1.4052-0.38517 0.11724-0.87637-0.69383-1.2296-0.57638-0.66661 0.22166-1.2318 1.4248-1.838 1.541-0.60618 0.11621-1.555-1.5623-2.0155-1.2403-0.59509 0.4161-1.105-0.0189-1.6381-0.10033-0.5331-0.0814-1.1225 0.42463-1.6429 0.2511s-0.97165-1.0268-1.4954-1.288-2.3856 1.1105-3.1999 0.59371c-0.81434-0.51678-0.62184-3.0438-1.8799-4.0393-0.91777-0.72626-3.5355 0.20808-4.6036-0.66487-0.39603-0.32366 0.83294-2.3942 0.41162-2.7368-0.88751-0.72164-1.2798-1.9336-2.4613-2.4332-0.45314-0.19161-1.7477 0.56781-2.1594 0.24979-0.39881-0.30811-0.24104-1.6607-0.66122-1.9787-0.33354-0.25245-1.4527 0.60269-1.8485 0.30337-0.2842-0.21489 0.23937-1.6659-0.33069-1.5651-1.3754 0.24309-3.8734 1.7962-4.5821 1.2958-1.0229-0.72227 0.67449-4.4024 0.0077-4.8495-1.5869-1.0639-1.3142-0.80783-2.0355-1.1498s-1.4844-0.64387-2.2856-0.90716-1.6409-0.48807-2.5156-0.67771-1.7847-0.34358-2.7264-0.46454-1.915-0.20916-2.9171-0.26645c-1.0021-0.0573-1.5052-0.0838-3.0892-0.0821-1.584 2e-3 -4.3251 0.11766-6.6136 0.32537s-4.6525 0.50814-7.0652 0.88083-4.8745 0.81752-7.3592 1.3153-4.9926 1.0483-7.4972 1.6313-3.7697 0.88452-7.4781 1.8268-10.744 2.8219-14.274 3.7616-4.6925 1.1853-7.0027 1.7667v37.165h266.67z" fill="#809259"/>
 <path d="m23.09 273.26c-0.2245-0.30364-0.40864-0.53123-0.63976-0.84749-5.0781-6.949-8.9639-11.961-12.793-8.1856-3.8293 3.7757 3.3554-4.9776 2.7958-5.9464s-2.1634-1.6038-2.8315-2.7731c-0.66817-1.1693-0.012236-2.1733-0.30521-2.5811-0.29298-0.40782-2.0693 0.01472-2.3893-0.33868s0.81628-1.4828 0.46797-1.7873c-0.15199-0.13286-0.62418-0.0943-0.7818-0.21862-0.2036-0.16057-0.09452-0.48125-0.30754-0.62836-0.37794-0.26101-3.0427 0.76805-3.4516 0.54502s1.6591-1.6028 0.99745-1.8886-2.4986-0.0176-3.5176-0.30162c-1.019-0.28398-1.4409-1.2154-2.6071-1.4461-0.74136-0.14668-1.0621-0.9773-1.8415-1.1128-0.4466-0.0776-1.1672 0.56661-1.8905 0.44567-0.64994-0.10867-1.1054-1.097-2.052-1.5503-0.41395-0.19823-1.4279 0.4569-1.9497 0.37877-0.78008-0.1168-1.0999-0.92349-1.8065-1.0497-1.0422-0.18616-2.3627 0.80065-3.1535 0.6425-1.1465-0.2293-1.8053-0.53473-2.2539-0.82166-0.32854-0.2101-0.80429 0.0622-1.0165-0.0909-0.13136-0.0947-0.0015-0.64391-0.15589-0.69376-0.74465-0.24039-1.449 0.30707-1.8038 0.14903s-0.32471-0.72861-0.55648-0.88522-0.72549 0.10066-0.85274-0.0553 0.21842-0.37062 0.17718-0.52671-0.46954-0.25368-0.44332-0.41068-0.31484-0.28922-0.1269-0.68597c0.06532-0.13789 0.42317-0.0811 0.64012-0.30565 0.11864-0.12279 0.07095-0.51183 0.19835-0.64026 0.30992-0.31242 0.60747-0.62036 0.70643-0.82069 0.21402-0.43327-0.0799-0.38262-0.03801-0.56154s0.14056-0.22726 0.12021-0.41258c-0.02036-0.18532-0.07611-0.37388-0.17725-0.56638s-0.09724-0.48939-0.2977-0.68985c-0.20045-0.20046-0.58889-0.0186-0.81205-0.1752-0.17072-0.1198-0.01546-0.34489-0.16961-0.55007-0.04735-0.063-0.34278-0.0101-0.4278-0.0513-0.06817-0.0331-0.10336-0.30798-0.26858-0.29826-0.10137 6e-3 -0.27548 0.14473-0.31961 0.11118-0.12861-0.0978 0.06109-0.40552-0.12578-0.46072-0.19908-0.0588-0.54384 0.0238-0.73273-0.0122-0.28718-0.0547-0.57807-0.39255-0.86965-0.41503-0.24267-0.0187-0.48582 0.27344-0.72767 0.27344-0.14578 0-0.26951 0.10825-0.38949 0.0474-0.08656-0.0439-0.17117-0.26393-0.26071-0.25873-0.23967 0.0139-0.51246 0.26673-0.90991 0.31985-0.09347 0.0125-0.15735-0.19667-0.30349-0.28492-0.07969-0.0481-0.25427 0.0453-0.3089-0.0135-0.14751-0.15884-0.13589-0.33424-0.30533-0.29896-0.15924 0.0332-0.41647 0.22962-0.65342 0.26229-0.15001 0.0207-0.29189-0.15167-0.39563-0.067-0.3273 0.2673-0.39207 0.84247-0.58864 0.96995-0.67806 0.43973-0.41994 0.44976-1.0526 0.36742-0.5369-0.0699-1.313 0.62215-2.2639 0.48126-0.19887-0.0295-0.30959-0.7445-0.53388-0.77375-0.26672-0.0348-0.51162-0.45511-0.74074-0.44521-0.88474 0.0382-1.5342 0.68222-2.2963-0.0235-0.38459-0.35614-1.2085-1.0512-1.3471-0.56586-0.74815 2.6197 2.9533 1.4923 2.1626 1.3021-0.62178-0.14954-1.7771 0.58475-2.4213 0.40624-0.72299-0.20035-0.93703-1.3174-1.6741-1.5576-0.7149-0.23295-2.0896 0.27744-2.8451-0.0147-0.71739-0.27739-0.58444-2.3968-1.0833-2.621-1.0242-0.46041-1.2612 1.4435-2.2485 0.0529s-1.9585 0.12531-2.5761-0.27299-0.551-1.6713-1.1167-2.1196c-0.26211-0.20769-0.85206-0.0869-1.1011-0.30582-0.28842-0.25362-0.23352-0.84892-0.50247-1.1179-0.20955-0.20955-0.6338-0.3213-0.6884-0.58738-0.07597-0.37023 0.251-0.89851 0.08691-1.1533-0.28202-0.43797-1.0486-0.60767-1.1116-0.89426-0.06303-0.28659-1.1943-0.28101-1.1908-0.45948s1.1398-0.36213 1.2094-0.61229c0.02732-0.0982-0.44882-0.46963-0.44833-0.7301 7.59e-4 -0.40298 0.48396-0.73794 0.63489-0.9155 0.24848-0.29233 0.9001 0.14287 1.2831-0.11553s0.92253-1.352 1.419-1.5837 0.94978 0.39835 1.5385 0.18589c0.45191-0.1631 0.15559-0.47511 0.82752-0.68431 0.20338-0.0633 0.66713 0.18322 1.0504 0.0668 0.17656-0.0536 0.2522-1.1567 0.50188-1.2283 0.46347-0.13286-0.98047-0.17142-1.4351-0.5556-0.27345-0.23106 0.80823-0.024 0.9254-0.2968 0.12702-0.29576-0.68083-1.0645-0.22161-1.1124 0.43132-0.045 0.84637-0.90642 1.3072-0.97243 1.2258-0.17561 2.4882 0.39696 3.0811 0.21452 1.8323-0.56377 1.1233-1.2647 1.8216-1.5148s1.7045 0.28927 2.3471 7e-3c0.6426-0.28189-0.02342-0.91248 0.54231-1.2335 0.15409-0.0874 0.62163-0.0182 0.92538-0.23158 0.23046-0.16192 0.28157-0.62124 0.5209-0.65788 0.60336-0.0924 1.1412 0.38071 1.3848 0.18925 0.24109-0.18943 0.10647-0.52413 0.29851-0.70351 0.18052-0.16862 0.69052-0.18251 0.82907-0.34243 0.28593-0.33004 0.48407-0.64146 0.60048-0.93431s-0.19162-0.56728-0.23247-0.8232 0.18525-0.49337-5.89e-4 -0.71262-0.44109-0.42022-0.75964-0.60306c-0.28949-0.16616-0.63129-0.31717-1.0207-0.45343-0.0391-0.0137-0.17318 0.0437-0.21323 0.0303-0.17306-0.0578-0.12472-0.23103-0.45105-0.23609-0.14201-2e-3 -0.27832-0.23247-0.42394-0.26719-0.16561-0.0395-0.33672 0.0816-0.51312 0.0459-0.40454-0.0819-0.57853-0.44043-1.0746-0.50723-0.17496-0.0236-0.2852 0.36439-0.71387 0.22869-0.20035-0.0634-0.55618 0.35189-0.83165 0.3282-0.38833-0.0334-0.73255-0.46587-1.2044-0.49239-0.34585-0.0194-0.87345-0.47047-1.2374-0.4832-0.4151-0.0145-0.66756 0.41043-1.0747 0.40813-0.67073-4e-3 -1.2057 0.58111-2.0446 0.4954-0.65487-0.0669-1.4176-0.0818-2.1465-0.30071-0.55962-0.16809-1.0992-0.56615-1.5546-0.53354-0.91446 0.0655-1.0465 1.2824-1.9962 1.3829-0.92826 0.0982-2.0593-0.40105-3.0094-0.26945-0.37711 0.0522-0.49008 0.76196-0.82448 1.0027-0.33184 0.23892-0.88498 9e-3 -1.2932 0.0773-0.41574 0.0697-0.37732 0.96319-0.70512 1.2557-0.27934 0.24927-0.87638-0.0155-1.6869-0.7582-0.37002-0.33904-0.93582 1.0217-1.2872 1.0944-0.62818 0.12997-1.229-0.74276-1.6905-0.36105-0.6062 0.50139-1.0603 0.60842-1.7135 0.77728-1.1505 0.29742-1.5328-0.88655-3.4872-0.31729-0.92568 0.26962-1.452 1.1426-2.5528 1.248-0.72827 0.0698-1.8583-0.72241-2.9826-0.3608-0.76424 0.24579-2.0209 1.4594-2.9922 1.7783-0.94243 0.3094-2.74-0.52044-3.6258 0.59679-4.398 5.5474-4.5656 0.4313-6.8013 1.2016-0.76195 0.26254-1.3509 1.4792-2.2954 1.8663-0.676 0.27702-1.7622-0.3272-2.174 0.0902-0.92388 0.93639-0.6663 2.3727-1.6763 2.7241-0.32064 0.11155-0.69194 0.11794-1.0647 0.0979-0.58305-0.0314-1.0044 1.4317-1.4068 1.5721-0.34304 0.11971-0.83476-1.252-1.1461-1.035-0.87592 0.61074-1.6332 1.4566-2.3098 1.6921-1.7024 0.59249-2.4261-0.57824-3.71-0.45355-0.5682 0.0552-1.6222 1.2238-2.2789 1.4474-0.0376 0.0128-0.0664 0.0214-0.10387 0.0341v49.12z" fill="#9a8970"/>
 <path d="m163.34 227.89c-0.64967-0.18718-0.90869-1.5032-1.5581-1.6853-0.78182-0.21919-1.9597 0.69558-2.8214 0.46763-1.5776-0.41731-4.256 0.64865-5.979 0.25201s-3.473-0.76621-5.241-1.0974-3.2581 2.1405-5.0553 1.8972c-1.7972-0.24333-3.4561-4.7466-4.8138-4.8465-1.3578-0.0998-1.143 1.4187-2.0485 1.384-0.90547-0.0348-2.4784-1.5896-3.3822-1.5898-0.9038-1.9e-4 -1.4053 1.7548-2.3054 1.792-0.90012 0.0372-2.1993-1.6436-3.0938-1.5662-0.45798 0.0396-0.31367 1.6215-0.76972 1.6723-0.43463 0.0483-1.4697-1.435-1.9025-1.3762-0.88682 0.12036-0.96737 3.203-1.8445 3.3691-0.87718 0.16614-2.5511-2.5842-3.4166-2.3694s-0.44679 0.0552-2.5766 0.7205c-1.0876 0.33973-1.8169 3.0715-3.5515 3.6275-1.6622 0.53279-4.3239-1.1126-5.668-0.66494-2.7468 0.91474-3.7052 3.6318-5.8391 4.4215-1.3845 0.51229-3.4289 0.28588-5.0156 0.20478-0.859-0.0439-1.6547 0.97058-2.0681 1.1521-1.1769 0.51685-1.4306-0.33767-2.083-0.0136-0.65238 0.32405 1.8335 2.3088 1.3073 2.6154s-4.0644-1.065-4.4704-0.77276c-0.20458 0.14725 0.22693 1.0159-0.01145 1.198-0.2347 0.17927-1.1398-0.32802-1.2845-0.18865-0.2918 0.28093 0.1402 0.87435-0.04342 1.147-0.18362 0.27271-0.73254 0.0743-0.81396 0.34191-0.08141 0.26756 0.70559 0.59986 0.72031 0.86534 0.01472 0.26547-0.74259 0.46417-0.63764 0.73064s0.87132 0.48396 1.0604 0.7545c0.1891 0.27053-0.13226 0.66329 0.0682 0.87155s0.54272 0.12371 0.5954 0.25554-0.25078 0.41055-0.27398 0.53583 0.08367 0.56507-0.01021 0.68425-0.3092-0.1387-0.54841 0.0316-0.76355 0.84408-1.3141 1.0512-1.2069 4e-3 -1.9482 0.1954c-0.74126 0.1909-1.4008 0.92563-2.2917 1.1039-0.89094 0.17825-1.5134-0.28463-3.0129-0.0308-0.44751 0.0757-1.2529 1.1375-1.8573 1.0331-0.99616-0.17199-1.8924-1.5653-3.0333-1.3937-0.48638 0.0731-1.0139 1.2787-1.4728 1.3466-0.26732 0.0396-1.1005-0.64533-1.3917-0.54418-0.41788 0.14515-0.29513 1.0582-0.65566 0.84946-3.7862-2.1922-3.3112 0.50285-4.391 0.68116-1.5371 0.25381-2.2009-0.48465-3.1294-0.3064-0.16098 0.0309-0.10191 0.68921-0.24988 0.76153-0.14763 0.0721-0.50232-0.44178-0.6407-0.34552-0.23642 0.16445-0.37937 0.89495-0.60345 1.0622-0.27159 0.20272-0.62356-0.16713-0.907-0.0988-0.31732 0.0765-0.49664 0.30241-0.63713 0.55889-0.08093 0.14773-0.52695 0.0694-0.60108 0.21476-0.11812 0.23164 0.1263 0.66771-0.0994 0.74396-0.25891 0.0875-0.50301-0.43824-0.89835-0.5298-0.22343-0.0517-0.42505 0.26191-0.65228 0.30822-0.32301 0.0658-0.64953-0.10715-0.74979-0.0494-0.29559 0.1703 0.48585 0.65502 0.35125 0.7742s-1.0868-0.18398-1.1538-0.0587c-0.06701 0.12528 0.03357 0.65988 0.03927 0.79172s-0.12528-0.20826 0 0 0.42169 0.57093 0.74259 0.8787 0.49191 0.4626 1.1395 0.96426c0.42241 0.32724 1.3163 0.0965 2.0354 0.61121 0.38326 0.27434 0.64509 1.3345 0.91842 1.5313 0.27575 0.1986 0.95951 0.11143 1.5873 0.0159 1.1619-0.17689 2.1321-0.38253-0.03182 1.142-1.8758 1.3216-1.7271 1.5411-0.80878 1.4361 0.28121-0.0322 0.6593-0.43707 1.0261-0.50019 0.56365-0.097 1.1006 0.15831 1.2183 0.26604 0.20051 0.18358-0.0752 1.0364 0.10637 1.2221 0.22072 0.22571 0.89374-0.21529 1.0801 0.0131 0.3397 0.41624-0.7385 1.176-0.59443 1.4927s1.5738 0.18873 1.6249 0.40075c0.05107 0.21202 0.64626 0.55826 0.64702 0.77072 7.57e-4 0.21246-2.4782-0.43372-0.64805 0.50385s0.0327 0.49077-0.25528 0.63674c-0.28799 0.14597 0.13656 1.2256-0.0461 1.4368s-0.87011-0.32233-1.0551-0.16972 0.14213 1.0493-0.0024 1.1538c-0.14454 0.10455-0.61954-0.68771-0.87608-0.52673s-0.53624 1.0504-0.95072 1.2565-1.0386-0.22375-1.5411-0.0202c-0.50252 0.20353 1.0336 2.1918-1.6464 0.60596s-1.24 0.39956-1.9348 0.59667-1.141-0.53954-2.3394-0.24966-3.3094 1.6002-5.3563 1.9688c-0.98412 0.17718-2.3567-0.98431-3.4521-0.81191-1.1829 0.18618-2.0979 1.7058-3.4163 1.886-0.93994 0.12849-2.4741 1.0925-3.3996 0.83765-1.5746-0.43362-2.527-2.2434-4.0594-2.0874-0.6947 0.0707-1.4959 1.1249-2.2286 1.0942-0.83038-0.0348-1.5918-1.14-2.3578-0.74757-0.92527 0.47403-1.6417 2.3404-2.5502 2.4043-0.71151 0.05-1.9857-0.98025-2.7942-0.7666-0.63846 0.16873-0.81044 1.6162-1.4056 1.498-1.1127-0.22089-2.0056-1.6272-3.0054-1.5846-0.7479 0.0319-1.6054 1.603-2.3565 1.36-0.79146-0.25609-1.075-1.0913-1.8347-1.0716-0.65142 0.0169-1.2306 1.134-1.8711 1.1463-0.64011 0.0124-1.1448-1.0908-1.8022-1.1005-0.22421-3e-3 -0.56662 0.48576-0.92469 0.4707-0.25896-0.0109-0.54302-0.55589-0.71572-0.44911-0.3581 0.22143-0.50204 0.72395-0.79362 0.63246-0.33734-0.10585-0.70597 0.37127-0.97385 0.14394-0.26444-0.22442-0.21537-0.9414-0.56814-0.94104-0.41208 4.2e-4 -1.1784 1.3536-1.612 1.4088-0.21003 0.0267-0.68765-0.58027-0.89621-0.55657-0.59708 0.068-0.91211 0.73785-1.4296 0.61937-0.56877-0.13018-0.68604-0.9887-1.4804-0.99748-0.21085-2e-3 -0.43279 0.79834-0.66748 0.7956-0.55166-6e-3 -1.286-0.83582-2.0896-0.75726-0.73089 0.0714-1.5191 1.0531-2.2793 1.0184-0.47368-0.0217-0.80723-0.66191-1.2709-0.63208-0.89833 0.0578-1.6591 0.8137-2.4403 0.80052-1.0482-0.0177-1.6037-0.58443-2.3058-0.59456-0.60973-9e-3 -1.5027 0.56541-1.923 0.44212-0.88067-0.25832-1.0455-1.3135-1.7185-1.3156-0.27303-8.6e-4 -0.67908 0.95127-0.97365 0.83343-0.50353-0.20144-0.97475 0.51021-1.439 0.33095-0.3152-0.12171-0.59283-0.95772-0.89528-0.95403-0.65347 8e-3 -1.6953 1.9639-1.8831 0.67178-0.06316-0.43457-0.99786 0.57237-1.415 0.45232-0.53451-0.15385-0.922-0.99618-1.4415-0.96511-0.31114 0.0186-0.65131 0.67376-0.95367 0.69605-0.16546 0.0122-0.79868-0.0608-0.96396-0.0281-0.4457 0.0881-0.42208 0.31591-0.85939 0.2951-0.18334-9e-3 -0.37085-0.30586-0.54998-0.30992-0.23545-5e-3 -0.4312 0.30281-0.6565 0.31636-0.14347 9e-3 -0.31999-0.28477-0.45826-0.2644-0.1092 0.0161-0.16277 0.40127-0.27736 0.43792-0.12626 0.0404-0.31396-0.26655-0.44296-0.22409-0.20299 0.0668-0.31239 0.47572-0.5094 0.47125-0.14418-3e-3 -0.2689-0.28535-0.4078-0.28931-0.13577-4e-3 -0.34408 0.10546-0.4546 0.16878-0.2965 0.16985-0.59574-0.1675-0.8343-0.10533-0.15256 0.0397-0.2646 0.51144-0.37865 0.5428-0.40017 0.11007-0.62445-0.25732-0.94272-0.14946-0.40897 0.13859-0.71876 0.76558-1.0822 0.92203h191.08z" fill="#5b4843"/>
 <path d="m23.09 273.26c-0.2245-0.30364 33.779 0.31642 33.548 1.6e-4 -2.5323-3.4653-12.894-5.984-23.114-7.164-0.41366-0.0478-1.7705 1.9821-2.1799 1.9317-0.39916-0.0492-1.2-0.21767-1.6184-1.0046-0.37748-0.70992-0.3734-2.0462-0.7231-2.0811-0.45456-0.0453-1.8506 0.74024-2.1429 1.6079-0.18571 0.5514 0.75037 1.1923 0.48326 1.4929-0.54673 0.61541-1.5572-0.3542-2.1007-0.42796-2.8201-0.38274-2.9858-3.9763-5.1857-4.1615-3.1102-0.26185-5.115-3.3653-5.9582-2.5339-3.8293 3.7757-1.0858-1.6703-1.6454-2.6391-0.55959-0.96885-2.1634-1.6038-2.8316-2.7731-0.66817-1.1693-0.0122-2.1733-0.30521-2.5811-0.29297-0.40782-2.0693 0.0147-2.3893-0.33868-0.31999-0.3534 0.81628-1.4828 0.46797-1.7873-0.15199-0.13286-0.62417-0.0943-0.7818-0.21862-0.2036-0.16057-0.0945-0.48125-0.30754-0.62836-0.37793-0.26101-3.0427 0.76805-3.4516 0.54502-0.40886-0.22303 1.6591-1.6028 0.99745-1.8886s-2.4986-0.0176-3.5176-0.30162c-1.019-0.28398-1.4409-1.2154-2.6071-1.4461-0.74136-0.14668-1.0621-0.9773-1.8415-1.1128-0.4466-0.0776-1.1672 0.56661-1.8905 0.44567-0.64994-0.10867-1.1054-1.097-2.052-1.5503-0.41394-0.19823-1.4279 0.4569-1.9497 0.37877-0.78009-0.1168-1.0999-0.92349-1.8065-1.0497-1.0422-0.18616-2.3627 0.80065-3.1535 0.6425-1.1465-0.2293-1.8053-0.53473-2.2539-0.82166-0.32854-0.2101-0.80429 0.0622-1.0165-0.0909-0.13136-0.0947-0.0016-0.64391-0.15589-0.69376-0.74465-0.24039-1.449 0.30707-1.8038 0.14903s-0.32471-0.72861-0.55648-0.88522-0.72549 0.10066-0.85274-0.0553c-0.12724-0.15596 0.21842-0.37062 0.17718-0.52671s-0.46954-0.25368-0.44332-0.41068-0.31484-0.28922-0.1269-0.68597c0.06532-0.13789 0.42318-0.0811 0.64012-0.30565 0.11864-0.12279 0.07095-0.51183 0.19835-0.64026 0.30992-0.31242 0.60747-0.62036 0.70643-0.82069 0.21402-0.43327-0.0799-0.38262-0.03801-0.56154s0.14056-0.22726 0.12021-0.41258c-0.02037-0.18532-0.07611-0.37388-0.17725-0.56638s-0.09724-0.48939-0.2977-0.68985c-0.20045-0.20046-0.58889-0.0186-0.81205-0.1752-0.17072-0.1198-0.01545-0.34489-0.16961-0.55007-0.04735-0.063-0.34279-0.0101-0.4278-0.0513-0.06817-0.0331-0.10336-0.30798-0.26858-0.29826-0.10138 6e-3 -0.27548 0.14473-0.31961 0.11118-0.12861-0.0978 0.06109-0.40552-0.12578-0.46072-0.19908-0.0588-0.54384 0.0238-0.73273-0.0122-0.28718-0.0547-0.57807-0.39255-0.86964-0.41503-0.24267-0.0187-0.48582 0.27344-0.72767 0.27344-0.14578 0-0.26951 0.10825-0.38949 0.0474-0.08656-0.0439-0.17117-0.26393-0.26071-0.25873-0.23967 0.0139-0.51246 0.26673-0.90991 0.31985-0.09347 0.0125-0.15735-0.19667-0.30349-0.28492-0.07969-0.0481-0.25427 0.0453-0.3089-0.0135-0.14751-0.15884-0.13589-0.33424-0.30533-0.29896-0.15924 0.0332-0.41647 0.22962-0.65342 0.26229-0.15001 0.0207-0.29189-0.15167-0.39563-0.067-0.3273 0.2673-0.39207 0.84247-0.58864 0.96995-0.67806 0.43973-0.41994 0.44976-1.0526 0.36742-0.5369-0.0699-1.313 0.62215-2.2639 0.48126-0.19887-0.0295-0.30959-0.7445-0.53387-0.77375-0.26672-0.0348-0.51162-0.45511-0.74074-0.44521-0.88474 0.0382-1.5342 0.68222-2.2963-0.0235-0.38459-0.35614-1.2085-1.0512-1.3471-0.56586-0.74815 2.6197 2.9533 1.4923 2.1626 1.3021-0.62178-0.14954-1.7771 0.58475-2.4213 0.40624-0.72299-0.20035-0.93703-1.3174-1.6741-1.5576-0.7149-0.23295-2.0896 0.27744-2.8451-0.0147-0.71739-0.27739-0.58445-2.3968-1.0833-2.621-1.0242-0.46041-1.2612 1.4435-2.2485 0.0529-0.98729-1.3906-1.9585 0.12531-2.5761-0.27299-0.61754-0.3983-0.551-1.6713-1.1167-2.1196-0.26211-0.20769-0.85207-0.0869-1.1011-0.30582-0.28842-0.25362-0.23352-0.84892-0.50247-1.1179-0.20955-0.20955-0.6338-0.3213-0.6884-0.58738-0.07597-0.37023 0.251-0.89851 0.08691-1.1533-0.28202-0.43797-1.0486-0.60767-1.1116-0.89426-0.06303-0.28659-1.1943-0.28101-1.1908-0.45948s1.1398-0.36213 1.2094-0.61229c0.02732-0.0982-0.44882-0.46963-0.44833-0.7301 7.94e-4 -0.40298 0.48396-0.73794 0.63489-0.9155 0.24848-0.29233 0.9001 0.14287 1.2831-0.11553 0.38303-0.2584 0.92253-1.352 1.419-1.5837 0.49643-0.23177 0.94978 0.39835 1.5385 0.18589 0.45192-0.1631 0.15559-0.47511 0.82752-0.68431 0.20337-0.0633 0.66713 0.18322 1.0504 0.0668 0.17656-0.0536 0.2522-1.1567 0.50189-1.2283 0.46347-0.13286-0.98047-0.17142-1.4351-0.5556-0.27345-0.23106 0.80823-0.024 0.92541-0.2968 0.12702-0.29576-0.68083-1.0645-0.22161-1.1124 0.43132-0.045 0.84637-0.90642 1.3072-0.97243 1.2258-0.17561 2.4882 0.39696 3.0811 0.21452 1.8323-0.56377 1.1233-1.2647 1.8216-1.5148 0.69832-0.25005 1.7045 0.28927 2.3471 7e-3 0.6426-0.28189-0.02342-0.91248 0.5423-1.2335 0.15409-0.0874 0.62163-0.0182 0.92539-0.23158 0.23046-0.16192 0.28157-0.62124 0.5209-0.65788 0.60336-0.0924 1.1412 0.38071 1.3848 0.18925 0.24109-0.18943 0.10647-0.52413 0.29851-0.70351 0.18052-0.16862 0.69052-0.18251 0.82907-0.34243 0.28593-0.33004 0.48407-0.64146 0.60048-0.93431s-0.19162-0.56728-0.23247-0.8232 0.18525-0.49337-5.3e-4 -0.71262c-0.18589-0.21925-0.44114-0.42022-0.7597-0.60306-0.28949-0.16616-0.63129-0.31717-1.0207-0.45343-0.0391-0.0137-0.17318 0.0437-0.21323 0.0303-0.17307-0.0578-0.12472-0.23103-0.45105-0.23609-0.14201-2e-3 -0.27832-0.23247-0.42394-0.26719-0.16561-0.0395-0.33672 0.0816-0.51312 0.0459-0.40454-0.0819-0.57853-0.44043-1.0746-0.50723-0.17496-0.0236-0.2852 0.36439-0.71387 0.22869-0.20035-0.0634-0.55618 0.35189-0.83165 0.3282-0.38833-0.0334-0.73255-0.46587-1.2044-0.49239-0.34585-0.0194-0.87345-0.47047-1.2374-0.4832-0.4151-0.0145-0.66756 0.41043-1.0747 0.40813-0.67073-4e-3 -1.2057 0.58111-2.0446 0.4954-0.65487-0.0669-1.4176-0.0818-2.1465-0.30071-0.55962-0.16809-1.0992-0.56615-1.5546-0.53354-0.91446 0.0655-1.0465 1.2824-1.9962 1.3829-0.92826 0.0982-2.0593-0.40105-3.0094-0.26945-0.3771 0.0522-0.49008 0.76196-0.82448 1.0027-0.33184 0.23892-0.88498 9e-3 -1.2932 0.0773-0.41574 0.0697-0.37732 0.96319-0.70512 1.2557-0.27934 0.24927-0.87638-0.0155-1.6869-0.7582-0.37002-0.33904-0.93582 1.0217-1.2872 1.0944-0.62818 0.12997-1.229-0.74276-1.6905-0.36105-0.60621 0.50139-1.0603 0.60842-1.7135 0.77728-1.1505 0.29742-1.5328-0.88655-3.4872-0.31729-0.92568 0.26962-1.452 1.1426-2.5528 1.248-0.72827 0.0698-1.8583-0.72241-2.9826-0.3608-0.76424 0.24579-2.0209 1.4594-2.9922 1.7783-0.94244 0.3094-2.74-0.52044-3.6258 0.59679-4.398 5.5474-4.5656 0.4313-6.8013 1.2016-0.76195 0.26254-1.3509 1.4792-2.2954 1.8663-0.676 0.27702-1.7622-0.3272-2.174 0.0902-0.92388 0.93639-0.6663 2.3727-1.6763 2.7241-0.32065 0.11155-0.69194 0.11794-1.0647 0.0979-0.58305-0.0314-1.0044 1.4317-1.4068 1.5721-0.34304 0.11971-0.83476-1.252-1.1461-1.035-0.87592 0.61074-1.6332 1.4566-2.3098 1.6921-1.7024 0.59249-2.4261-0.57824-3.71-0.45355-0.5682 0.0552-1.6222 1.2238-2.2789 1.4474-0.0376 0.0128-0.0664 0.0214-0.10387 0.0341v49.12z" fill="#776f62"/>
 <path d="m15.874 273.26c-0.21168-0.2863-0.38531-0.5009-0.60324-0.79911-4.7882-6.5524-4.2645-14.397-7.8752-10.837-3.6107 3.5602-1.0238-1.5749-1.5515-2.4885-0.52765-0.91355-2.0399-1.5123-2.6699-2.6148-0.63003-1.1026-0.011504-2.0492-0.28779-2.4338-0.27625-0.38454-1.9512 0.0139-2.2529-0.31935-0.30172-0.33323 0.76968-1.3982 0.44126-1.6853-0.14331-0.12527-0.58854-0.0889-0.73717-0.20614-0.19198-0.1514-0.089106-0.45378-0.28998-0.59249-0.35636-0.24611-2.869 0.72421-3.2545 0.51391-0.38552-0.2103 1.5644-1.5113 0.94051-1.7808-0.62388-0.26948-2.356-0.0166-3.3168-0.2844-0.9608-0.26777-1.3587-1.146-2.4583-1.3635-0.69904-0.13831-1.0015-0.92152-1.7364-1.0493-0.42111-0.0732-1.1006 0.53427-1.7826 0.42023-0.61284-0.10247-1.0423-1.0344-1.9349-1.4618-0.39032-0.18691-1.3464 0.43082-1.8384 0.35715-0.73556-0.11013-1.0371-0.87077-1.7034-0.98979-0.98275-0.17553-2.2279 0.75495-2.9735 0.60583-1.0811-0.21621-1.7022-0.50421-2.1253-0.77476-0.30979-0.19811-0.75838 0.0587-0.95851-0.0857-0.12386-0.0893-0.0015-0.60716-0.14699-0.65416-0.70214-0.22667-1.3663 0.28954-1.7008 0.14052s-0.30617-0.68702-0.52472-0.83469-0.68408 0.0949-0.80406-0.0521c-0.11998-0.14706 0.20595-0.34946 0.16706-0.49664s-0.44274-0.2392-0.41802-0.38724-0.29686-0.27271-0.11966-0.64682c0.06159-0.13001 0.39902-0.0765 0.60358-0.2882 0.11187-0.11578 0.0669-0.48261 0.18703-0.60371 0.29223-0.29459 0.57279-0.58495 0.6661-0.77384 0.20181-0.40854-0.07534-0.36078-0.03584-0.52949s0.13254-0.21429 0.11335-0.38903c-0.01921-0.17474-0.07177-0.35254-0.16713-0.53405-0.09537-0.18151-0.09169-0.46145-0.2807-0.65047s-0.55527-0.0175-0.76569-0.1652c-0.16097-0.11296-0.01457-0.3252-0.15993-0.51867-0.04465-0.0594-0.32322-0.01-0.40338-0.0484-0.06428-0.0312-0.09746-0.2904-0.25325-0.28124-0.09559 6e-3 -0.25975 0.13647-0.30137 0.10484-0.12127-0.0922 0.0576-0.38237-0.1186-0.43442-0.18772-0.0554-0.51279 0.0224-0.69091-0.0115-0.27078-0.0516-0.54507-0.37014-0.82-0.39134-0.22882-0.0176-0.45808 0.25784-0.68614 0.25784-0.13746 0-0.25412 0.10207-0.36726 0.0447-0.08162-0.0414-0.1614-0.24886-0.24583-0.24396-0.22599 0.0131-0.48321 0.2515-0.85797 0.30159-0.08813 0.0118-0.14837-0.18544-0.28616-0.26866-0.07514-0.0454-0.23975 0.0427-0.29127-0.0127-0.13909-0.14978-0.12813-0.31517-0.2879-0.2819-0.15015 0.0313-0.3927 0.21651-0.61612 0.24732-0.14145 0.0195-0.27523-0.14301-0.37305-0.0632-0.30862 0.25204-0.36969 0.79438-0.55504 0.91459-0.63935 0.41463-0.39597 0.42408-0.99256 0.34644-0.50625-0.0659-1.238 0.58664-2.1347 0.45379-0.18752-0.0278-0.29192-0.702-0.5034-0.72958-0.2515-0.0328-0.48242-0.42913-0.69846-0.4198-0.83424 0.036-1.4466 0.64328-2.1652-0.0222-0.36264-0.33581-1.1395-0.99123-1.2702-0.53356-0.70544 2.4702 2.7847 1.4071 2.0392 1.2278-0.58629-0.14101-1.6757 0.55137-2.2831 0.38305-0.68172-0.18891-0.88354-1.2422-1.5785-1.4687-0.67409-0.21965-1.9703 0.2616-2.6827-0.0139-0.67644-0.26156-0.55108-2.26-1.0215-2.4714-0.96572-0.43413-1.1892 1.3611-2.1202 0.0499-0.93093-1.3113-1.8467 0.11816-2.429-0.2574-0.58229-0.37557-0.51954-1.5759-1.053-1.9986-0.24715-0.19583-0.80343-0.0819-1.0382-0.28836-0.27196-0.23915-0.22019-0.80046-0.47378-1.0541-0.19759-0.19759-0.59762-0.30296-0.6491-0.55385-0.07163-0.3491 0.23667-0.84722 0.08195-1.0875-0.26592-0.41297-0.9887-0.57298-1.0481-0.84321-0.05943-0.27023-1.1228-0.43325-1.1228-0.43325-0.5678-0.0505-1.3686 0.97023-1.7936 1.048-0.56072 0.10268-0.74712-0.66603-1.653-0.0785-0.4922 0.31924-0.27556 1.7422-0.84406 2.0121-0.67094 0.31852-1.8555 0.11283-2.5809 0.19045-0.67536 0.0723-0.89287 0.43099-1.4895 0.61799-0.7975 0.24995-0.76719 1.2005-1.1544 1.4424-0.52375 0.3272-1.3802-0.0738-2.0395 0.0701-0.98097 0.21418-0.4232-0.44282-0.42274-0.68843 7.49e-4 -0.37997 0.45634-0.69581 0.59865-0.86324 0.23429-0.27564 0.84872 0.13472 1.2099-0.10893 0.36116-0.24365 0.86987-1.2748 1.338-1.4933 0.46809-0.21854 0.89557 0.37561 1.4507 0.17528 0.42612-0.15379 0.14671-0.44799 0.78029-0.64525 0.19176-0.0597 0.62905 0.17276 0.99044 0.063 0.16648-0.0505 0.2378-1.0907 0.47324-1.1582 0.43701-0.12527-0.9245-0.16163-1.3532-0.52388-0.25784-0.21787 0.76209-0.0226 0.87258-0.27986 0.11976-0.27888-0.64196-1.0038-0.20896-1.0489 0.4067-0.0424 0.79806-0.85468 1.2326-0.91692 1.1558-0.16559 2.3461 0.3743 2.9052 0.20227 1.7277-0.53159 1.0592-1.1925 1.7176-1.4283 0.65846-0.23578 1.6072 0.27276 2.2132 7e-3 0.60592-0.2658-0.02208-0.86039 0.51135-1.1631 0.1453-0.0824 0.58615-0.0172 0.87256-0.21836 0.2173-0.15268 0.2655-0.58578 0.49116-0.62032 0.56892-0.0871 1.076 0.35897 1.3058 0.17844 0.22733-0.17861 0.10039-0.49421 0.28147-0.66335 0.17022-0.15899 0.6511-0.17209 0.78174-0.32288 0.26961-0.3112 0.45644-0.60485 0.5662-0.88098s-0.18068-0.5349-0.2192-0.77621 0.17467-0.46521-5e-4 -0.67194c-0.17528-0.20675-0.41596-0.39624-0.71633-0.56865-0.27297-0.15667-0.59526-0.29906-0.96246-0.42754-0.03687-0.0129-0.16329 0.0412-0.20106 0.0286-0.16319-0.0545-0.1176-0.21785-0.4253-0.22262-0.1339-2e-3 -0.26244-0.2192-0.39974-0.25194-0.15616-0.0372-0.3175 0.077-0.48383 0.0433-0.38145-0.0772-0.5455-0.41528-1.0133-0.47827-0.16497-0.0222-0.26892 0.34359-0.67312 0.21563-0.18891-0.0598-0.52443 0.33181-0.78417 0.30947-0.36616-0.0315-0.69074-0.43928-1.1356-0.46428-0.32611-0.0183-0.82359-0.44361-1.1668-0.45561-0.39141-0.0137-0.62945 0.387-1.0133 0.38483-0.63244-4e-3 -1.1369 0.54794-1.9279 0.46712-0.61749-0.0631-1.3367-0.0771-2.0239-0.28354-0.52767-0.1585-1.0365-0.53384-1.4659-0.50309-0.86226 0.0618-0.98676 1.2092-1.8823 1.304-0.87528 0.0926-1.9418-0.37815-2.8376-0.25407-0.35558 0.0492-0.4621 0.71847-0.77742 0.9455-0.3129 0.22528-0.83446 8e-3 -1.2193 0.0729-0.39201 0.0657-0.35579 0.90821-0.66487 1.184-0.2634 0.23505-0.82636-0.0146-1.5906-0.71492-0.3489-0.31968-0.8824 0.9634-1.2138 1.032-0.59232 0.12255-1.1588-0.70037-1.594-0.34044-0.22109 0.18286-0.88009-0.0407-1.0774 0.0558-0.31285 0.15299-0.03354 0.5795-0.53826 0.67709-0.09887 0.0191-0.72983 0.12316-0.8365-0.021-0.09327-0.12608 0.3146-0.48913 0.50836-0.64298 0.11672-0.0927 0.47831-0.17306 0.69513-0.37951 0.11786-0.11221 0.04583-0.38525 0.20601-0.43419 0.34872-0.10655 0.89104 0.19329 1.0918 0.0158 0.24508-0.2167-0.21416-0.73617 0.13057-0.94557 0.20584-0.12503 1.4696 0.26468 1.6846 0.13446 0.30309-0.18353 0.62424-0.74757 1.0149-0.89979 0.34308-0.13367 0.78184 0.15727 0.73482-0.15952-0.10796-0.7274-0.14574-0.67756 0.15823-0.73304 0.13317-0.0243 0.52282 0.1037 0.67959 0.12124 0.31999 0.0358 0.77207 0.22165 0.97635 0.0956 0.41278-0.25467 0.60982-0.7058 0.99719-0.74562 0.33911-0.0349 0.76116-0.1804 0.98537-0.33148 0.22483-0.15149-0.2979-0.35532-0.1966-0.55501 0.2012-0.39662 0.66445-0.58858 0.57729-0.69848-0.08716-0.10989-1.0726-0.12833-1.3705 0.0806-0.42049 0.29485-0.42902 1.038-1.0365 1.0962-0.6867 0.0658-1.7522-0.68118-2.8124-0.34021-0.72062 0.23176-1.9056 1.3761-2.8214 1.6768-0.88864 0.29174-2.5836-0.49073-3.4188 0.56273-0.89524 1.1292-1.6046 1.7898-2.1878 2.1388-0.32314 0.19339-0.58392-0.53571-0.83977-0.50693-0.42337 0.0476-0.79215 0.73323-1.1051 0.52422-0.31851-0.2127-0.60372-0.4956-0.90415-0.72118-0.18265-0.13714-0.60717 0.33749-0.81199 0.27139-0.23862-0.077-0.26344-0.67695-0.56419-0.57332-0.71846 0.24756-1.2738 1.3948-2.1644 1.7597-0.63742 0.26121-1.6616-0.30852-2.0499 0.0851-0.87114 0.88293-0.62827 2.2373-1.5806 2.5686-0.30234 0.10518-0.65244 0.11121-1.004 0.0923-0.54977-0.0296-0.94707 1.35-1.3265 1.4824-0.32346 0.11288-0.78711-1.1806-1.0807-0.97587-0.82592 0.57588-1.54 1.3734-2.178 1.5955-1.6053 0.55867-2.2876-0.54523-3.4982-0.42766-0.53576 0.0521-1.5296 1.1539-2.1488 1.3648-0.0355 0.0121-0.0626 0.0202-0.0979 0.0322v46.315z" fill="#8b805a"/>
 <path d="m163.34 232.13c-1.298-0.37399-2.5403-0.7256-3.9706-1.1039s-3.0447-0.78262-4.6068-1.1422c-0.77628-0.1787-1.7948 1.1606-2.5822 0.99524-0.79703-0.16735-1.363-1.8391-2.1694-1.9902-1.6029-0.30026-3.7677 3.3113-5.397 3.0907s-3.1333-4.3033-4.3642-4.3938c-1.231-0.0905-1.0362 1.2862-1.8572 1.2547-0.82091-0.0316-2.247-1.4412-3.0663-1.4413-0.81939-1.7e-4 -1.274 1.591-2.0901 1.6247-0.81606 0.0337-1.9939-1.4901-2.8048-1.4199-0.4152 0.0359-0.28437 1.4701-0.69783 1.5161-0.39404 0.0438-1.3324-1.301-1.7248-1.2477-0.804 0.10912-0.87703 2.9038-1.6723 3.0545-0.79525 0.15062-2.3128-2.3428-3.0976-2.1481-0.78471 0.19467-0.40506 0.05-2.336 0.65321-0.98604 0.308-1.6472 2.7846-3.2198 3.2887-1.5069 0.48303-3.9201-1.0086-5.1387-0.60284-2.4903 0.82931-3.3591 3.2926-5.2938 4.0085-1.2552 0.46444-3.1086 0.25918-4.5472 0.18565-0.77878-0.0398-1.5002 0.87994-1.8749 1.0445-1.067 0.46858-1.297-0.30613-1.8885-0.0123-0.59145 0.29379 1.6622 2.0931 1.1852 2.3711-0.47704 0.27796-3.6848-0.96553-4.0529-0.70059-0.18546 0.1335 0.20574 0.92105-0.01033 1.0861-0.21279 0.16253-1.0333-0.29738-1.1646-0.17103-0.26455 0.25469 0.12711 0.79269-0.03935 1.0399-0.16646 0.24724-0.66413 0.0674-0.73793 0.30997-0.0738 0.24258 0.63969 0.54384 0.65304 0.78453 0.01333 0.24067-0.67324 0.42082-0.5781 0.6624 0.09515 0.24158 0.78994 0.43876 0.96138 0.68404 0.17144 0.24526-0.1199 0.60134 0.06183 0.79015s0.49202 0.11216 0.53979 0.23167c0.04778 0.11952-0.22736 0.37221-0.2484 0.48579-0.02103 0.11358 0.07588 0.5123-0.0092 0.62035-0.08513 0.10805-0.28032-0.12575-0.49719 0.0286-0.21687 0.15439-0.69224 0.76524-1.1914 0.95307-0.49917 0.18782-1.0942 4e-3 -1.7663 0.17715-0.67203 0.17307-1.27 0.83918-2.0777 1.0008-0.80773 0.16161-1.372-0.25804-2.7315-0.0279-0.40572 0.0686-1.1359 1.0313-1.6839 0.93664-0.90312-0.15592-1.7157-1.4191-2.75-1.2635-0.44096 0.0663-0.91923 1.1593-1.3352 1.2209-0.24235 0.0359-0.99775-0.58506-1.2617-0.49336-0.37885 0.13159-0.26757 0.95938-0.59443 0.77013-3.4326-1.9875-3.0019 0.45588-3.9809 0.61754-1.3935 0.23011-1.9953-0.43939-2.8371-0.27778-0.14594 0.028-0.09239 0.62484-0.22654 0.69041-0.13384 0.0654-0.45541-0.40053-0.58087-0.31326-0.21434 0.1491-0.34394 0.81137-0.54709 0.96301-0.24622 0.18379-0.56533-0.15152-0.82229-0.0896-0.28769 0.0693-0.45025 0.27417-0.57763 0.50669-0.07337 0.13394-0.47774 0.0629-0.54494 0.19471-0.10709 0.21 0.11451 0.60535-0.09012 0.67448-0.23473 0.0793-0.45603-0.39732-0.81445-0.48033-0.20256-0.0469-0.38536 0.23745-0.59136 0.27944-0.29284 0.0597-0.58887-0.0971-0.67976-0.0448-0.26798 0.1544 0.44047 0.59385 0.31845 0.7019-0.12203 0.10805-0.98528-0.1668-1.046-0.0532-0.06075 0.11358 0.03043 0.59825 0.0356 0.71778 0.0052 0.11953-0.11358-0.18881 0 0s0.3823 0.51761 0.67324 0.79663c0.29094 0.27903 0.44597 0.4194 1.033 0.87421 0.38296 0.29668 1.1934 0.0875 1.8453 0.55413 0.34747 0.24872 0.58484 1.2098 0.83265 1.3883 0.25 0.18005 0.8699 0.10103 1.439 0.0144 1.0534-0.16037 1.933-0.34681-0.02885 1.0354-1.7006 1.1982-1.5658 1.3972-0.73325 1.3019 0.25495-0.0292 0.59773-0.39625 0.93025-0.45347 0.51101-0.0879 0.99782 0.14352 1.1045 0.24119 0.18178 0.16644-0.06818 0.93966 0.09643 1.108 0.20011 0.20463 0.81027-0.19518 0.97925 0.0119 0.30797 0.37737-0.66953 1.0661-0.53891 1.3533s1.4268 0.1711 1.4731 0.36332 0.5859 0.50612 0.58659 0.69874c7.2e-4 0.19262-2.2468-0.39321-0.58753 0.45679 1.6593 0.85001 0.02965 0.44494-0.23144 0.57728-0.26109 0.13233 0.1238 1.1111-0.04179 1.3026-0.1656 0.19148-0.78884-0.29222-0.95659-0.15387-0.16774 0.13836 0.12885 0.95128-0.0022 1.0461-0.13105 0.0948-0.56168-0.62349-0.79426-0.47754-0.23258 0.14594-0.48616 0.95229-0.86193 1.1391s-0.9416-0.20285-1.3972-0.0183c-0.45558 0.18452 0.93706 1.9871-1.4926 0.54937-2.4297-1.4377-1.1242 0.36224-1.7541 0.54094-0.62986 0.1787-1.0344-0.48915-2.1209-0.22634-1.0865 0.2628-3.0003 1.4508-4.856 1.7849-0.89222 0.16063-2.1366-0.89238-3.1297-0.73609-1.0724 0.1688-1.902 1.5465-3.0972 1.7099-0.85215 0.11649-2.243 0.9905-3.0821 0.75942-1.4276-0.39312-2.291-2.0339-3.6802-1.8925-0.62982 0.0641-1.3562 1.0198-2.0205 0.99199-0.75283-0.0316-1.4431-1.0335-2.1376-0.67776-0.83886 0.42976-1.4884 2.1219-2.312 2.1798-0.64506 0.0453-1.8003-0.8887-2.5332-0.69501-0.57884 0.15297-0.73475 1.4652-1.2743 1.3581-1.0088-0.20026-1.8183-1.4753-2.7247-1.4366-0.67805 0.0289-1.4555 1.4533-2.1364 1.233-0.71755-0.23217-0.97458-0.98937-1.6633-0.97147-0.59058 0.0153-1.1157 1.028-1.6964 1.0393-0.58033 0.0112-1.0379-0.98889-1.6339-0.99772-0.20327-3e-3 -0.5137 0.4404-0.83834 0.42674-0.23477-0.01-0.4923-0.50397-0.64888-0.40716-0.32465 0.20075-0.45515 0.65634-0.7195 0.57339-0.30584-0.096-0.64004 0.3366-0.8829 0.1305-0.23974-0.20346-0.19526-0.85348-0.51508-0.85316-0.3736 4.9e-4 -1.0683 1.2272-1.4614 1.2772-0.19041 0.0242-0.62343-0.52608-0.81251-0.50459-0.54132 0.0616-0.82692 0.66894-1.2961 0.56152-0.51565-0.11802-0.62197-0.89636-1.3421-0.90432-0.19116-2e-3 -0.39237 0.72378-0.60514 0.72129-0.50014-5e-3 -1.1659-0.75776-1.8945-0.68653-0.66263 0.0647-1.3772 0.95478-2.0664 0.92326-0.42944-0.0197-0.73184-0.60009-1.1522-0.57305-0.81444 0.0524-1.5042 0.73771-2.2124 0.72576-0.95027-0.0161-1.454-0.52985-2.0904-0.53903-0.55278-8e-3 -1.3624 0.5126-1.7434 0.40082-0.79842-0.23419-0.94787-1.1908-1.558-1.1928-0.24753-7.3e-4 -0.61566 0.86243-0.88271 0.75559-0.4565-0.18263-0.88371 0.46256-1.3046 0.30004-0.28576-0.11034-0.53747-0.86827-0.81167-0.86493-0.59244 7e-3 -1.5369 1.7805-1.7072 0.60904-0.057261-0.39398-0.90467 0.51892-1.2828 0.41008-0.48459-0.13948-0.83589-0.90314-1.3068-0.87498-0.28208 0.0169-0.59048 0.61084-0.86461 0.63105-0.15 0.0111-0.72409-0.0551-0.87393-0.0255-0.40408 0.0799-0.38266 0.28641-0.77913 0.26754-0.16622-8e-3 -0.33621-0.27729-0.49862-0.28097-0.21346-5e-3 -0.39093 0.27453-0.59519 0.28681-0.13007 8e-3 -0.2901-0.25817-0.41546-0.23971-0.098997 0.0146-0.14757 0.3638-0.25146 0.39702-0.11447 0.0366-0.28463-0.24165-0.40159-0.20316-0.18403 0.0606-0.28322 0.43129-0.46182 0.42724-0.13072-3e-3 -0.24378-0.2587-0.36971-0.26229-0.12309-4e-3 -0.31194 0.0956-0.41215 0.15302-0.26885 0.15399-0.54014-0.15186-0.75642-0.0955-0.13831 0.036-0.23989 0.46367-0.34328 0.4921-0.36281 0.0998-0.56614-0.2333-0.85468-0.13551-0.37077 0.12565-0.65163 0.69408-0.98111 0.83592h173.23z" fill="#3d3331"/>
 <path d="m163.34 239.07c-1.4496-0.31081-2.8368 0.088-4.434-0.91744-0.74311-0.46779-2.0505 0.87231-2.856 0.73445-0.92586-0.15846-1.3557-1.7536-2.2885-1.6837-1.0443 0.0783-1.5787 1.1316-2.6406 0.887-0.71194-0.164-1.9471-1.6137-2.6656-1.7138-1.79-0.24953-4.2075 2.7519-6.027 2.5685-0.81891-0.0825-0.52279-2.3744-1.27-3.1621-0.91294-0.96251-2.8478-0.44808-3.6037-0.48944-1.3746-0.0752-1.1572 1.0689-2.0739 1.0427-0.91673-0.0263-2.5092-1.1977-3.4243-1.1978-0.91504-1.4e-4 -1.4228 1.3222-2.3341 1.3502-0.91132 0.028-2.2266-1.2383-3.1322-1.18-0.46367 0.0298-0.31757 1.2217-0.77929 1.26-0.44004 0.0364-1.488-1.0812-1.9261-1.0369-0.89786 0.0907-0.97941 2.4133-1.8675 2.5384s-2.5828-1.947-3.4591-1.7852c-0.87631 0.16178-0.45234 0.0416-2.6086 0.54286-1.1011 0.25596-1.8395 2.3142-3.5957 2.7331-1.6828 0.40142-4.3777-0.83825-5.7385-0.501-2.781 0.68921-3.7512 2.7364-5.9118 3.3313-1.4017 0.38598-3.4715 0.21539-5.078 0.15429-0.86969-0.0331-1.6753 0.73128-2.0938 0.86805-1.1915 0.38941-1.4484-0.25442-2.1089-0.0102-0.66049 0.24416 1.8563 1.7395 1.3236 1.9705-0.53273 0.23101-4.115-0.80241-4.526-0.58223-0.20711 0.11095 0.22977 0.76545-0.0115 0.90263-0.23763 0.13507-1.1539-0.24714-1.3005-0.14213-0.29543 0.21166 0.14194 0.65877-0.044 0.86424-0.18589 0.20547-0.74164 0.056-0.82407 0.2576-0.08241 0.2016 0.71436 0.45196 0.72927 0.65199 0.01485 0.20001-0.75183 0.34973-0.64558 0.55049 0.10631 0.20077 0.88216 0.36464 1.0736 0.56848 0.19145 0.20383-0.1339 0.49975 0.06901 0.65666 0.20294 0.15691 0.54945 0.0932 0.6028 0.19253 0.05338 0.0993-0.2539 0.30933-0.2774 0.40372-0.02345 0.0944 0.08476 0.42575-0.01005 0.51555-0.09503 0.0898-0.31304-0.10451-0.55523 0.0238-0.24219 0.1283-0.77305 0.63595-1.3305 0.79205-0.55744 0.15609-1.222 3e-3 -1.9724 0.14722-0.75048 0.14384-1.4182 0.69741-2.3202 0.8317-0.90202 0.13431-1.5322-0.21444-3.0503-0.0232-0.45307 0.057-1.2685 0.85703-1.8804 0.7784-1.0085-0.12958-1.916-1.1793-3.071-1.0501-0.49244 0.0551-1.0265 0.96344-1.4911 1.0146-0.27064 0.0298-1.1142-0.48622-1.409-0.41001-0.42307 0.10936-0.2988 0.7973-0.66381 0.64002-3.8333-1.6517-3.3523 0.37887-4.4456 0.51322-1.5562 0.19123-2.2282-0.36516-3.1683-0.23086-0.16298 0.0233-0.10318 0.51928-0.25299 0.57378-0.14946 0.0543-0.50857-0.33287-0.64867-0.26034-0.23936 0.12391-0.38409 0.67429-0.61095 0.80032-0.27497 0.15274-0.63132-0.12593-0.91828-0.0745-0.32127 0.0576-0.50281 0.22785-0.64506 0.42109-0.08194 0.11131-0.5335 0.0523-0.60856 0.16182-0.11958 0.17452 0.12788 0.50308-0.10064 0.56053-0.26213 0.0659-0.50927-0.3302-0.90952-0.39918-0.22621-0.039-0.43034 0.19733-0.66039 0.23223-0.32703 0.0496-0.65761-0.0807-0.75911-0.0372-0.29927 0.12831 0.49189 0.49352 0.35562 0.58332s-1.1003-0.13863-1.1681-0.0442c-0.06784 0.0944 0.03398 0.49718 0.03976 0.59652 0.0058 0.0993-0.12684-0.15691 0 0s0.42693 0.43016 0.75183 0.66204c0.3249 0.2319 0.49803 0.34855 1.1536 0.72652 0.42766 0.24656 1.3327 0.0727 2.0607 0.46052 0.38803 0.2067 0.65311 1.0054 0.92984 1.1538 0.27918 0.14964 0.97144 0.084 1.607 0.012 1.1764-0.13328 2.1586-0.28822-0.03222 0.86044-1.8992 0.99574-1.7486 1.1611-0.81884 1.082 0.28471-0.0243 0.6675-0.3293 1.0388-0.37686 0.57066-0.073 1.1143 0.11928 1.2334 0.20045 0.203 0.13832-0.07614 0.78091 0.10769 0.9208 0.22347 0.17006 0.90486-0.16221 1.0936 0.01 0.34392 0.31362-0.74769 0.88602-0.60182 1.1246 0.14586 0.23863 1.5934 0.14219 1.6451 0.30194 0.0517 0.15974 0.6543 0.42061 0.65506 0.58069 8.87e-4 0.16008-2.5091-0.32678-0.65611 0.37962 1.853 0.70641 0.03311 0.36977-0.25846 0.47975-0.29157 0.10997 0.13826 0.92339-0.04667 1.0825-0.18492 0.15913-0.88093-0.24285-1.0682-0.12787-0.18733 0.11498 0.14389 0.79057-0.0023 0.86934-0.14634 0.0788-0.62725-0.51815-0.88698-0.39686-0.25973 0.12128-0.54291 0.79141-0.96254 0.94669s-1.0515-0.16858-1.5603-0.0152c-0.50877 0.15335 1.0464 1.6514-1.6669 0.45656-2.7133-1.1948-1.2554 0.30104-1.9588 0.44955s-1.1551-0.40651-2.3685-0.1881c-1.2133 0.2184-3.3505 1.2057-5.4229 1.4834-0.99636 0.13349-2.3861-0.74162-3.495-0.61174-1.1976 0.14028-2.124 1.2852-3.4587 1.421-0.95163 0.0968-2.5048 0.82316-3.4419 0.63112-1.5942-0.32671-2.5584-1.6903-4.1098-1.5728-0.70334 0.0533-1.5145 0.84754-2.2563 0.8244-0.84071-0.0263-1.6116-0.85891-2.3871-0.56325-0.93678 0.35715-1.6621 1.7634-2.5819 1.8115-0.72036 0.0376-2.0104-0.73856-2.8289-0.5776-0.6464 0.12713-0.82052 1.2177-1.4231 1.1287-1.1265-0.16643-2.0305-1.226-3.0428-1.1939-0.7572 0.024-1.6253 1.2078-2.3858 1.0247-0.80131-0.19295-1.0883-0.82223-1.8575-0.80735-0.65951 0.0127-1.2459 0.85437-1.8944 0.86369-0.64807 9e-3 -1.1591-0.82182-1.8246-0.82916-0.227-2e-3 -0.57366 0.366-0.93619 0.35464-0.26218-8e-3 -0.54977-0.41882-0.72462-0.33837-0.36255 0.16684-0.50828 0.54546-0.80349 0.47652-0.34153-0.0798-0.71475 0.27974-0.98596 0.10845-0.26773-0.16908-0.21805-0.70929-0.57521-0.70902-0.4172 4.4e-4 -1.193 1.0199-1.632 1.0614-0.21264 0.0201-0.69621-0.4372-0.90735-0.41934-0.60451 0.0512-0.92345 0.55593-1.4474 0.46666-0.57585-0.0981-0.69458-0.74493-1.4988-0.75155-0.21347-2e-3 -0.43817 0.60151-0.67578 0.59944-0.55852-4e-3 -1.302-0.62974-2.1156-0.57055-0.73998 0.0538-1.538 0.79348-2.3076 0.76728-0.47957-0.0164-0.81727-0.4987-1.2867-0.47623-0.90951 0.0435-1.6797 0.61308-2.4707 0.60315-1.0612-0.0134-1.6237-0.44034-2.3345-0.44797-0.61731-7e-3 -1.5214 0.426-1.947 0.33311-0.89162-0.19463-1.0585-0.98967-1.7399-0.99127-0.27643-6.6e-4 -0.68753 0.71673-0.98576 0.62794-0.50979-0.15177-0.98687 0.38442-1.4569 0.24935-0.31912-0.0917-0.60021-0.72158-0.90642-0.7188-0.6616 6e-3 -1.7163 1.4797-1.9065 0.50614-0.06394-0.32742-1.0103 0.43126-1.4326 0.3408-0.54115-0.11591-0.93346-0.75056-1.4594-0.72715-0.31501 0.014-0.65941 0.50764-0.96553 0.52443-0.16752 9e-3 -0.80861-0.0458-0.97595-0.0212-0.45125 0.0664-0.42733 0.23803-0.87008 0.22234-0.18562-7e-3 -0.37546-0.23044-0.55682-0.2335-0.23838-4e-3 -0.43657 0.22815-0.66466 0.23835-0.14526 7e-3 -0.32397-0.21456-0.46396-0.19921-0.11055 0.0121-0.1648 0.30234-0.28081 0.32995-0.12783 0.0304-0.31786-0.20082-0.44846-0.16885-0.20551 0.0504-0.31628 0.35844-0.51573 0.35507-0.14598-2e-3 -0.27224-0.215-0.41287-0.21797-0.13746-3e-3 -0.34836 0.0794-0.46026 0.12716-0.30024 0.12798-0.60319-0.1262-0.84472-0.0794-0.15445 0.0299-0.2679 0.38534-0.38336 0.40896-0.40516 0.0829-0.63222-0.19388-0.95445-0.11261-0.41435 0.10443-0.72799 0.57683-1.0959 0.69471h193.46z" fill="#785d57"/>
 <path d="m-103.33 249.62c1.6953-0.16836 3.3446-2.8736 4.9364-3.1786 1.3058-0.25021 2.8402 1.4942 4.0623 1.7763 1.7957 0.41447 3.227-0.46973 4.8086-0.23762 3.9703 0.58267 2.4771 0.49703 5.6646-0.96263 1.4183-0.64946 2.3921 1.5979 4.2921 1.6585 1.1664 0.0372 2.2302-2.0789 3.5407-2.5277 0.69062-0.23657 0.73542 0.90678 1.418 1.1749 0.65414 0.25691 1.9519-0.36712 2.3581-0.30367 2.9445 0.45993-0.38234 2.3287 3.8675 1.9095 0.97796-0.0965 1.0696 1.9968 1.8347 2.5987 0.83754 0.65887 2.0322-2.3686 3.1028-1.8724 1.143 0.52987 2.0705-1.5212 2.9587-1.1783 0.43167 0.16665 0.37898 2.4111 0.907 2.4013 1.6227-0.0302 3.8157-1.2576 5.0381-1.046 0.73755 0.1277 1.637-1.26 2.4676-1.1338 1.1792 0.17919 2.0795 2.1579 3.2429 2.3614 0.34238 0.0599 0.69929-0.36614 1.0335-0.33804 0.26056 0.0219 0.03469 0.65197 0.20934 0.87643 0.24981 0.32106 0.98251-0.26801 1.3138-0.25431 0.73378 0.0303 0.72441 0.849 1.2885 0.81966 0.94132-0.049 2.2275-0.9091 2.0533-0.37402-0.26576 0.81611 1.453 1.0023 2.2238 1.5473 0.47657 0.33698-0.15348 1.1176 0.39587 1.3489 0.7217 0.30387 2.5306-0.2794 1.7404 0.64333-0.59046 0.68947 0.58562 1.1187 1.0332 1.8544 0.2576 0.42339-0.54129 1.2121-0.27089 1.6228 0.18026 0.27381 0.73861-0.17275 1.2092-0.0352 0.62057 0.18137 1.2108 0.90714 1.7916 0.96766 0.80918 0.0843 1.5677-1.7834 2.3894-1.7048 0.9732 0.0931 1.7705 1.0568 2.5559 1.0549 0.35594-8.5e-4 0.84583-0.85251 1.2298-0.85335 0.3638-7.9e-4 0.51593 1.0864 0.88428 1.1889 0.89894 0.25 2.032-0.33091 3.0128-0.30904 0.5225 0.0117 0.66728 1.1615 1.1834 1.1829 0.28358 0.0118 0.24608-0.97823 0.63588-1.2969 0.22209-0.18155 1.0012 0.37779 1.0584 0.23188 0.4282-1.092 0.69042-0.26225 1.0559 0.19063 0.39052 0.48386 0.88223 0.63451 1.2792 0.68998 0.36475 0.051 0.78772 0.54537 1.1591 0.43392 0.29025-0.0871 0.53979-0.79251 0.76597-0.73242 0.29233 0.0777 0.50932 0.16332 0.66766 0.2551 0.41193 0.23879-0.2583 0.70805-0.34693 0.9969-0.11617 0.37859 0.27496 0.58293 0.46432 0.91689 0.03221 0.0568 0.70524-3e-3 1.0935 0.16215 0.44184 0.18847 0.63808 0.60538 1.2907 0.6817 0.34834 0.0407 0.70773-0.36831 1.0579-0.32489 0.35228 0.0437 0.61171 0.4396 0.92469 0.48639 1.0177 0.15215 1.802-0.029 1.4766 0.16524-0.08727 0.0521 0.48628 0.31677 0.27952 0.39839-0.19831 0.0783-1.172-0.0252-1.4884-0.0308-0.30898-5e-3 -0.76641-0.32161-1.1166-0.29503-0.48838 0.0371-1.0033 0.0932-1.4894 0.21337-0.24358 0.0602-0.46742 0.23659-0.70216 0.23389-0.3884-4e-3 -0.78416-0.44675-1.0967-0.39952-0.53346 0.0806-0.93241 0.48428-1.0379 0.51902-0.21153 0.0697-0.40831-0.2154-0.55231-0.17884-0.40109 0.10183-0.5057 0.44126-0.24781 0.52839 0.2031 0.0686 0.64139 0.18794 1.3634 0.44507 0.24667 0.0879 0.52646 0.19177 0.84131 0.31525 3.7095 1.4548-2.945 1.3318-4.0601 1.9946s0.75348 2.5984 3.7428 2.743c1.3615 0.0659 3.586-1.6133 5.8451-1.5334 2.701 0.0956 5.5376 1.9887 8.18 2.6176 1.0713 0.25497 2.4155 1.057 3.3076-0.22861 1.1169-1.6096 1.8285-5.0129 3.8788 0.0587 0.18204 0.4503 0.95494 0.19298 0.86595 1.4082-0.027102 0.37008 0.5572 0.44765 0.8801 0.45567 0.39684 0.01 0.70236-0.53507 1.1543-0.66439 0.156-0.0446 0.2623 0.2974 0.45303 0.35743 0.19961 0.0628 0.48383-0.15623 0.65149-0.2068 0.37392-0.1128 0.49867 2.0335 1.1118-0.26507 0.075752-0.28401 0.41816 0.17715 0.73617 0.27265 0.35694 0.10718-1.2583 0.027 0.96438 0.0844 0.2922 8e-3 0.64541-0.20072 1.048-0.19867 0.44504 2e-3 0.60786 0.74003 1.1578 0.74786 1.0109 0.0144 1.3282-0.67731 1.6529-0.025 0.12722 0.25561 0.63761 0.0433 1.0745 0.0755 0.17587 0.0129 0.51248 0.38111 0.70175 0.24681 0.1705-0.12098 0.19026-0.74323 0.40655-0.77625 0.19423-0.0296 0.49096 0.28665 0.69864 0.30763 1.2644 0.12773 2.1834-0.039 3.4962-0.19325 0.11929-0.014 0.32451 0.3146 0.45085 0.30102 0.45055-0.0485 0.86681-0.4352 1.4393-0.46475 0.52035-0.0269 1.1725 0.52594 1.7847 0.52078 0.46672-4e-3 0.9314-0.45064 1.4399-0.48217 0.61207-0.0379 1.3618 0.5979 2.0328 0.59795 0.80753 6e-5 1.5318-0.85235 2.3849-0.99872 0.17563-0.0301 0.40466 0.47088 0.59071 0.49681 0.25158 0.0351 0.37393-0.49766 0.62774-0.5118 0.40027-0.0223 0.93428 0.45475 1.3455 0.45955 4.0745 0.0476 10.091-0.2165 13.651 6e-3 0.67465 0.0422 1.3282-0.35125 1.8647-0.32509 0.34814 0.017 0.61308 0.47656 0.91744 0.44263 0.14575-0.0162 0.28743-0.0332 0.42577-0.0501 0.11135-0.0136 0.21219-0.2276 0.31961-0.2407 0.64636-0.0788 1.2284-0.14146 1.8297-0.0997 0.23267 0.0161 0.28353 0.52738 0.52584 0.66051 0.18034 0.0991 0.54869-0.1901 0.73995-0.0952 0.24032 0.11928 0.49114 0.21203 0.75719 0.2199 0.29835 9e-3 0.39276 0.23296 0.60711 0.25319 1.637 0.15448 1.1715 0.38531 1.1715 0.38531h-159.97v-23.638z" fill="#ba8374"/>
 <path d="m59.088 216.96c-1.4449 1.5151-0.99661 2.172-0.76702 2.6264-0.03123 0.10978-0.05903 0.22061-0.08039 0.33324l-2.5617-1.8145s0.82552 2.2106 0.82552 2.7166c0 0.50602-0.66561 2.2904-0.66561 2.2904l2.3528-2.1256c-0.088 1.5761 0.04774 2.0076 0.4436 3.0578 0.66582 1.6779 4.3658 0.53666 4.3658 0.53666l-0.13142 1.0611s0.13907 0.0249 1.6294-0.49042c2.9577-0.5653 6.1992-4.393 6.1992-4.393-1.3088-0.0185-2.1981-3.5045-4.1976-4.571-2.3466-1.2517-5.9677-0.74298-7.4126 0.77209z" fill="#979f40" style="paint-order:fill markers stroke"/>
 <path d="m143.42 178.22c-22.947-4.7559-34.197-13.559-50.083 9.4064 15.409-13.989 28.223-12.984 50.083-9.4064z" fill="#486ba5" fill-rule="evenodd"/>
 <path d="m40.275 159.37c-22.449-6.7267-32.894-16.471-50.71 5.0308 16.563-12.601 29.242-10.489 50.71-5.0308z" fill="#486ba5" fill-rule="evenodd"/>
 <path d="m126.37 149.62c-21.269-7.3705-30.895-17.148-48.869 2.7607 16.409-11.417 28.49-8.8738 48.869-2.7607z" fill="#486ba5" fill-rule="evenodd"/>
 <path d="m104.45 157.45c-24.021-10.737-34.24-23.098-57.187-1.7356 20.264-11.633 34.075-7.4475 57.187 1.7356z" fill="#486ba5" fill-rule="evenodd"/>
 <path d="m105.16 137.8c-19.632-4.0688-29.256-11.6-42.847 8.0474 13.183-11.968 24.145-11.108 42.847-8.0474z" fill="#486ba5" fill-rule="evenodd"/>
 <path d="m112.43 138.87c-19.205-5.7548-28.141-14.092-43.383 4.3039 14.17-10.78 25.017-8.9734 43.383-4.3039z" fill="#486ba5" fill-rule="evenodd"/>
 <path d="m87.639 138.98c-21.269-7.3704-30.895-17.148-48.869 2.7607 16.409-11.417 28.49-8.8738 48.869-2.7607z" fill="#486ba5" fill-rule="evenodd"/>
 <path d="m95.58 141.22c-20.55-9.1859-29.293-19.761-48.925-1.4848 17.336-9.9523 29.152-6.3714 48.925 1.4848z" fill="#486ba5" fill-rule="evenodd"/>
 <path d="m22.115 157.32c-19.632-4.0688-29.256-11.6-42.847 8.0474 13.183-11.968 24.145-11.108 42.847-8.0474z" fill="#486ba5" fill-rule="evenodd"/>
 <path d="m158.28 172.56c-19.205-5.7548-28.141-14.092-43.383 4.3039 14.17-10.78 25.017-8.9734 43.383-4.3039z" fill="#486ba5" fill-rule="evenodd"/>
 <path d="m154.55 166.15c-24.861-8.6152-36.113-20.044-57.123 3.2269 19.18-13.345 33.301-10.372 57.123-3.2269z" fill="#486ba5" fill-rule="evenodd"/>
 <path d="m163.83 168.77c-24.021-10.737-34.24-23.098-57.187-1.7356 20.264-11.633 34.075-7.4475 57.187 1.7356z" fill="#486ba5" fill-rule="evenodd"/>
 <path d="m112.27 160.85c-19.632-4.0688-29.256-11.6-42.847 8.0474 13.183-11.968 24.145-11.108 42.847-8.0474z" fill="#486ba5" fill-rule="evenodd"/>
 <path d="m138.25 153.59c-22.449-6.7267-32.894-16.471-50.71 5.0308 16.563-12.601 29.242-10.489 50.71-5.0308z" fill="#486ba5" fill-rule="evenodd"/>
 <path d="m94.75 162.03c-21.269-7.3704-30.895-17.148-48.869 2.7607 16.409-11.417 28.49-8.8738 48.869-2.7607z" fill="#486ba5" fill-rule="evenodd"/>
 <path d="m102.69 164.27c-20.55-9.1859-29.293-19.761-48.925-1.4848 17.336-9.9523 29.152-6.3714 48.925 1.4848z" fill="#486ba5" fill-rule="evenodd"/>
 <path d="m77.373 178.58c-17.058-3.5355-25.422-10.079-37.231 6.9926 11.455-10.399 20.98-9.6517 37.231-6.9926z" fill="#486ba5" fill-rule="evenodd"/>
 <path d="m68.761 157.78c-16.688-5.0005-24.452-12.244-37.697 3.7398 12.313-9.3671 21.738-7.7972 37.697-3.7398z" fill="#486ba5" fill-rule="evenodd"/>
 <path d="m2.9975 183.38c-18.481-6.4044-26.846-14.9-42.464 2.3988 14.258-9.9207 24.755-7.7106 42.464-2.3988z" fill="#486ba5" fill-rule="evenodd"/>
 <path d="m-21.286 147.53c-17.856-7.9819-25.453-17.171-42.512-1.2902 15.064-8.6478 25.331-5.5363 42.512 1.2902z" fill="#486ba5" fill-rule="evenodd"/>
 <path d="m43.715 169.34c-17.058-3.5355-25.422-10.079-37.231 6.9926 11.455-10.399 20.98-9.6517 37.231-6.9926z" fill="#486ba5" fill-rule="evenodd"/>
 <path d="m8.6448 181.8c-16.688-5.0005-24.452-12.244-37.697 3.7398 12.313-9.3671 21.738-7.7972 37.697-3.7398z" fill="#486ba5" fill-rule="evenodd"/>
 <path d="m59.042 138.33c-21.269-7.3704-30.895-17.148-48.869 2.7607 16.409-11.417 28.49-8.8738 48.869-2.7607z" fill="#486ba5" fill-rule="evenodd"/>
 <path d="m82.165 170.35c-20.55-9.1859-29.293-19.761-48.925-1.4848 17.336-9.9523 29.152-6.3714 48.925 1.4848z" fill="#486ba5" fill-rule="evenodd"/>
 <path d="m73.528 160.28c-16.688-5.0005-24.452-12.244-37.697 3.7398 12.313-9.3671 21.738-7.7972 37.697-3.7398z" fill="#486ba5" fill-rule="evenodd"/>
 <path d="m148.86 160.75c-22.947-4.7559-34.197-13.559-50.083 9.4064 15.409-13.989 28.223-12.984 50.083-9.4064z" fill="#486ba5" fill-rule="evenodd"/>
 <path d="m157.36 162c-22.449-6.7267-32.894-16.471-50.71 5.0308 16.563-12.601 29.242-10.489 50.71-5.0308z" fill="#486ba5" fill-rule="evenodd"/>
 <path d="m137.66 164.75c-24.021-10.737-34.24-23.098-57.187-1.7356 20.264-11.633 34.075-7.4475 57.187 1.7356z" fill="#486ba5" fill-rule="evenodd"/>
 <path d="m161.12 148.3c-24.861-8.6152-36.113-20.044-57.123 3.2269 19.18-13.345 33.301-10.372 57.123-3.2269z" fill="#486ba5" fill-rule="evenodd"/>
 <path d="m162.32 155.92c-24.021-10.737-34.24-23.098-57.187-1.7356 20.264-11.633 34.075-7.4475 57.187 1.7356z" fill="#486ba5" fill-rule="evenodd"/>
 <path d="m146.29 136.19c-22.449-6.7267-32.894-16.471-50.71 5.0308 16.563-12.601 29.242-10.489 50.71-5.0308z" fill="#486ba5" fill-rule="evenodd"/>
 <path d="m-8.0533 193.25c-1.5209 1.5948-1.049 2.2863-0.80738 2.7646-0.03287 0.11556-0.06214 0.23222-0.08462 0.35078l-2.6964-1.9099s0.86895 2.3269 0.86895 2.8595c0 0.53265-0.70063 2.411-0.70063 2.411l2.4766-2.2374c-0.09263 1.659 0.05025 2.1133 0.46694 3.2187 0.70085 1.7661 4.5955 0.56488 4.5955 0.56488l-0.13833 1.117s0.14639 0.0263 1.7152-0.51622c3.1133-0.59504 6.5253-4.6241 6.5253-4.6241-1.3776-0.0195-2.3137-3.6889-4.4184-4.8115-2.4701-1.3175-6.2817-0.78207-7.8026 0.81271z" fill="#979f40" style="paint-order:fill markers stroke"/>
 <path d="m7.9944 204.28c-1.0648 1.1165-0.73446 1.6007-0.56526 1.9356-0.02302 0.0809-0.04351 0.16258-0.05925 0.24558l-1.8878-1.3372s0.60837 1.6291 0.60837 2.002c0 0.37292-0.49053 1.688-0.49053 1.688l1.7339-1.5665c-0.06485 1.1615 0.03518 1.4796 0.32691 2.2535 0.49068 1.2365 3.2174 0.39549 3.2174 0.39549l-0.09685 0.78201s0.10249 0.0184 1.2008-0.36141c2.1797-0.4166 4.5685-3.2374 4.5685-3.2374-0.96452-0.0136-1.6199-2.5827-3.0934-3.3686-1.7294-0.92243-4.398-0.54755-5.4628 0.56899z" fill="#979f40" style="paint-order:fill markers stroke"/>
 <path d="m45.249 196.16c-2.015 2.1129-1.3898 3.0291-1.0697 3.6628-0.0435 0.1531-0.0823 0.30765-0.11212 0.46473l-3.5724-2.5304s1.1512 3.0828 1.1512 3.7885c0 0.70569-0.92825 3.1942-0.92825 3.1942l3.2812-2.9643c-0.12272 2.1979 0.0666 2.7998 0.61863 4.2644 0.92854 2.3399 6.0884 0.74841 6.0884 0.74841l-0.18328 1.4798s0.19395 0.0348 2.2724-0.68392c4.1247-0.78835 8.6452-6.1263 8.6452-6.1263-1.8252-0.0259-3.0654-4.8873-5.8538-6.3746-3.2726-1.7456-8.3224-1.0361-10.337 1.0767z" fill="#cfcb3e" style="paint-order:fill markers stroke"/>
 <path d="m-63.443 193c-1.4069 1.4752-0.9704 2.1149-0.74685 2.5574-0.0304 0.10689-0.05748 0.2148-0.07828 0.32447l-2.4943-1.7668s0.8038 2.1524 0.8038 2.6452c0 0.49272-0.6481 2.2302-0.6481 2.2302l2.2909-2.0697c-0.08568 1.5346 0.04649 1.9548 0.43193 2.9774 0.64831 1.6337 4.251 0.52254 4.251 0.52254l-0.12796 1.0332s0.13542 0.0243 1.5866-0.47752c2.8799-0.55043 6.0361-4.2774 6.0361-4.2774-1.2744-0.0181-2.1403-3.4123-4.0872-4.4508-2.2849-1.2188-5.8108-0.72344-7.2177 0.75178z" fill="#cfcb3e" style="paint-order:fill markers stroke"/>
 <path d="m122.18 187.63c-2.6299 2.7576-1.8139 3.9533-1.3961 4.7804-0.0568 0.19982-0.10745 0.40153-0.14632 0.60653l-4.6624-3.3025s1.5025 4.0235 1.5025 4.9445c0 0.92103-1.2115 4.1689-1.2115 4.1689l4.2823-3.8688c-0.16016 2.8686 0.0869 3.6541 0.8074 5.5656 1.2119 3.0539 7.9462 0.97678 7.9462 0.97678l-0.23919 1.9314s0.25312 0.0454 2.9657-0.89262c5.3833-1.0289 11.283-7.9957 11.283-7.9957-2.3821-0.0337-4.0008-6.3785-7.64-8.3197-4.2711-2.2782-10.862-1.3523-13.492 1.4053z" fill="#cfcb3e" style="paint-order:fill markers stroke"/>
 <path d="m-13.005 213.72c-0.7485 0.78484-0.51627 1.1252-0.39734 1.3606-0.01617 0.0569-0.03058 0.11428-0.04164 0.17262l-1.327-0.93994s0.42764 1.1452 0.42764 1.4073c0 0.26214-0.3448 1.1865-0.3448 1.1865l1.2188-1.1011c-0.04558 0.81644 0.02474 1.04 0.2298 1.584 0.34491 0.86917 2.2616 0.278 2.2616 0.278l-0.06808 0.5497s0.07204 0.0129 0.84408-0.25405c1.5322-0.29283 3.2113-2.2757 3.2113-2.2757-0.67798-0.01-1.1387-1.8154-2.1745-2.3679-1.2156-0.6484-3.0914-0.38488-3.8399 0.39996z" fill="#878527" style="paint-order:fill markers stroke"/>
 <path d="m-31.883 201.51c-0.53946 0.56564-0.37208 0.81093-0.28637 0.98058-0.01164 0.041-0.02204 0.0824-0.03001 0.12441l-0.95639-0.67744s0.30821 0.82533 0.30821 1.0142c0 0.18893-0.2485 0.85514-0.2485 0.85514l0.87841-0.79358c-0.03285 0.58842 0.01783 0.74956 0.16562 1.1416 0.24858 0.62643 1.63 0.20036 1.63 0.20036l-0.04907 0.39618s0.05192 9e-3 0.60834-0.1831c1.1043-0.21105 2.3145-1.6401 2.3145-1.6401-0.48863-7e-3 -0.82066-1.3084-1.5672-1.7066-0.87611-0.46731-2.228-0.27739-2.7675 0.28826z" fill="#878527" style="paint-order:fill markers stroke"/>
 <path d="m126.32 212.96c-0.69374 0.72741-0.4785 1.0428-0.36827 1.261-0.0149 0.0527-0.0283 0.10597-0.0386 0.15999l-1.2299-0.87118s0.39635 1.0614 0.39635 1.3043c0 0.24296-0.31958 1.0997-0.31958 1.0997l1.1296-1.0205c-0.0423 0.75669 0.0229 0.96392 0.21297 1.4681 0.31968 0.80557 2.0961 0.25765 2.0961 0.25765l-0.0631 0.50949s0.0667 0.0116 0.78231-0.23547c1.4201-0.2714 2.9764-2.1092 2.9764-2.1092-0.62837-9e-3 -1.0554-1.6826-2.0154-2.1946-1.1267-0.60096-2.8652-0.35672-3.559 0.37069z" fill="#878527" style="paint-order:fill markers stroke"/>
 <path d="m96.67 201.6c-1.0648 1.1165-0.73446 1.6007-0.56526 1.9356-0.023 0.0809-0.0435 0.16258-0.0593 0.24558l-1.8878-1.3372s0.60837 1.6291 0.60837 2.002c0 0.37292-0.49053 1.688-0.49053 1.688l1.7339-1.5665c-0.0649 1.1615 0.0352 1.4796 0.32692 2.2535 0.49068 1.2365 3.2174 0.39549 3.2174 0.39549l-0.0968 0.78201s0.1025 0.0184 1.2008-0.36141c2.1797-0.4166 4.5685-3.2374 4.5685-3.2374-0.96452-0.0136-1.6199-2.5827-3.0934-3.3686-1.7294-0.92243-4.3979-0.54755-5.4628 0.56899z" fill="#979f40" style="paint-order:fill markers stroke"/>
 <path d="m99.456 208c-2.6299 2.7576-1.8139 3.9533-1.3961 4.7804-0.0568 0.19982-0.10745 0.40153-0.14632 0.60653l-4.6625-3.3025s1.5025 4.0235 1.5025 4.9445c0 0.92103-1.2115 4.1689-1.2115 4.1689l4.2823-3.8688c-0.16016 2.8686 0.0869 3.6541 0.8074 5.5656 1.2119 3.0539 7.9462 0.97678 7.9462 0.97678l-0.23919 1.9314s0.25312 0.0454 2.9657-0.89262c5.3833-1.0289 11.283-7.9957 11.283-7.9957-2.3821-0.0337-4.0008-6.3785-7.64-8.3197-4.2711-2.2782-10.862-1.3523-13.492 1.4053z" fill="#cfcb3e" style="paint-order:fill markers stroke"/>
 <path d="m77.505 152.38c-17.058-3.5355-25.422-10.079-37.231 6.9926 11.455-10.399 20.98-9.6517 37.231-6.9926z" fill="#486ba5" fill-rule="evenodd"/>
 <path d="m163.34 130.77v-2.1311c-5.7257-2.2166-10.847-3.837-15.879-3.8106-7.4131 0.0389-14.737 3.5779-23.929 13.759 14.046-9.773 25.392-10.777 39.808-7.8171z" fill="#486ba5" fill-rule="evenodd"/>
 <path d="m163.34 136.43v-2.5487c-5.3603-2.5284-10.209-4.2816-15.226-4.3418-6.8998-0.0829-14.122 3.0303-23.444 11.709 14.252-8.1814 25.322-8.5209 38.67-4.8183z" fill="#486ba5" fill-rule="evenodd"/>
 <path d="m163.34 148.87v-2.8303c-0.0721-0.0325-0.14973-0.0733-0.2217-0.10542 0.071 0.0129 0.15052 0.0329 0.2217 0.046v-1.5069c-5.7598-2.0264-10.84-3.6196-15.677-3.5491-6.8486 0.0997-13.408 3.4271-21.481 13.17 13.711-7.8712 24.475-8.4855 37.157-5.2245z" fill="#486ba5" fill-rule="evenodd"/>
 <path d="m163.34 156.56v-1.85c-3.7763-1.2363-7.2018-2.0965-10.534-2.0479-5.8591 0.0853-11.471 2.9321-18.377 11.268 10.007-7.6128 18.401-8.8863 28.911-7.3696z" fill="#486ba5" fill-rule="evenodd"/>
</svg>
